<?xml version="1.0" standalone="no"?>
<!DOCTYPE svg PUBLIC "-//W3C//DTD SVG 20010904//EN"
 "http://www.w3.org/TR/2001/REC-SVG-20010904/DTD/svg10.dtd">
<svg version="1.0" xmlns="http://www.w3.org/2000/svg"
 width="260.000000pt" height="260.000000pt" viewBox="0 0 260.000000 260.000000"
 preserveAspectRatio="xMidYMid meet">
<metadata>
Created by potrace 1.11, written by Peter Selinger 2001-2013
</metadata>
<g transform="translate(0.000000,260.000000) scale(0.100000,-0.100000)"
fill="#000000" stroke="none">
<path d="M244 1968 c-9 -15 5 -25 44 -32 21 -3 47 -15 58 -27 18 -20 19 -43
22 -408 2 -212 0 -405 -3 -429 -8 -55 -32 -79 -89 -87 -32 -5 -43 -11 -39 -21
8 -21 433 -21 433 0 0 10 -16 17 -45 22 -25 3 -56 14 -68 24 -21 17 -22 26
-25 214 -3 156 -1 196 10 197 75 6 60 20 257 -233 l185 -238 122 0 c76 0 125
4 129 11 4 6 -3 13 -15 16 -49 13 -100 51 -147 108 -185 225 -283 349 -283
355 0 4 17 11 38 15 56 10 139 53 172 88 53 56 73 154 50 237 -26 94 -121 164
-252 186 -61 10 -548 12 -554 2z m503 -69 c96 -26 152 -117 139 -222 -17 -125
-99 -179 -291 -191 l-65 -5 0 202 c0 111 4 207 8 213 4 6 14 13 22 16 26 8
140 1 187 -13z"/>
<path d="M1295 1971 c-13 -12 -1 -21 49 -35 69 -20 102 -56 269 -296 l127
-183 -27 -36 c-62 -82 -299 -368 -325 -391 -15 -14 -46 -32 -69 -40 -76 -28
-51 -35 139 -38 157 -2 182 0 182 13 0 10 -9 15 -26 15 -14 0 -41 7 -60 16
-36 17 -43 39 -23 77 15 26 238 311 248 315 8 3 203 -288 222 -329 14 -34 -2
-68 -34 -71 -12 0 -26 -2 -32 -3 -5 -2 -18 -3 -27 -4 -10 0 -18 -8 -18 -16 0
-13 32 -15 230 -15 196 0 230 2 230 15 0 8 -12 17 -27 21 -55 12 -61 15 -94
48 -19 19 -71 87 -116 152 -45 66 -116 167 -157 226 l-75 108 107 132 c188
232 232 274 304 286 28 5 43 13 43 22 0 13 -29 15 -182 16 -145 0 -183 -2
-183 -13 0 -7 3 -13 8 -14 45 -5 70 -13 85 -28 24 -23 12 -54 -56 -140 -76
-98 -161 -200 -167 -200 -3 0 -47 62 -99 139 -117 174 -121 213 -26 222 26 3
41 9 43 19 3 14 -25 16 -228 16 -127 -1 -233 -3 -235 -6z"/>
<path d="M250 758 c0 -5 0 -11 0 -15 0 -5 477 -8 1060 -8 583 0 1060 3 1060 7
0 5 0 11 0 16 0 4 -477 7 -1060 7 -583 0 -1060 -3 -1060 -7z"/>
<path d="M245 642 c-26 -26 37 -27 1065 -27 583 0 1060 3 1060 8 0 4 0 10 0
15 0 7 -2117 11 -2125 4z"/>
</g>
</svg>
